<mxfile host="Electron" modified="2023-11-02T19:07:39.008Z" agent="Mozilla/5.0 (Windows NT 10.0; Win64; x64) AppleWebKit/537.36 (KHTML, like Gecko) draw.io/22.0.2 Chrome/114.0.5735.289 Electron/25.8.4 Safari/537.36" etag="ql-I6kBkMd0nJ5AeFmQq" version="22.0.2" type="device">
  <diagram name="Page-1" id="EJUTPdUZJYaBdCg8lzsC">
    <mxGraphModel dx="988" dy="570" grid="1" gridSize="10" guides="1" tooltips="1" connect="1" arrows="1" fold="1" page="1" pageScale="1" pageWidth="827" pageHeight="1169" math="0" shadow="0">
      <root>
        <mxCell id="0" />
        <mxCell id="1" parent="0" />
        <mxCell id="XOve1jFmApysGJR4ThFD-1" value="&lt;div style=&quot;margin-left: 2em; font-size: 13px;&quot;&gt;&lt;font face=&quot;Courier New&quot;&gt;&lt;b&gt;&lt;br&gt;&lt;/b&gt;&lt;/font&gt;&lt;pre style=&quot;&quot;&gt;&lt;font face=&quot;Helvetica&quot;&gt;&lt;span style=&quot;background: rgb(255, 192, 160); padding: 1.5em 0px; line-height: 3em;&quot;&gt;&lt;span style=&quot;background: rgb(160, 192, 255); padding: 1em 0px;&quot;&gt;&lt;span style=&quot;background: rgb(160, 255, 160); padding: 0.5em 0px;&quot;&gt;&lt;span style=&quot;background: rgb(255, 160, 160);&quot;&gt;2001:0db8:&lt;/span&gt;85a3:&lt;/span&gt;08&lt;/span&gt;d3:&lt;/span&gt;&lt;span style=&quot;background: rgb(255, 255, 160);&quot;&gt;1319:8a2e:0370:7347&lt;/span&gt;&lt;span style=&quot;background: rgb(255, 192, 160);&quot;&gt;/64&lt;/span&gt;&lt;/font&gt;&lt;/pre&gt;&lt;br&gt;&lt;/div&gt;" style="text;html=1;verticalAlign=top;align=left;whiteSpace=wrap;" vertex="1" parent="1">
          <mxGeometry x="210" y="160" width="360" height="110" as="geometry" />
        </mxCell>
        <mxCell id="XOve1jFmApysGJR4ThFD-2" value="&lt;div style=&quot;margin-left: 2em;&quot;&gt;&lt;br&gt;&lt;p style=&quot;&quot;&gt;&lt;span style=&quot;background:#FFC0A0&quot;&gt;2001:0db8:85a3:08d3::/64&lt;/span&gt;&lt;br&gt;&lt;/p&gt;&lt;br&gt;&lt;/div&gt;" style="text;whiteSpace=wrap;html=1;" vertex="1" parent="1">
          <mxGeometry x="220" y="270" width="230" height="90" as="geometry" />
        </mxCell>
        <mxCell id="XOve1jFmApysGJR4ThFD-4" value="&lt;div style=&quot;font-family:monospace; margin-left: 2em;&quot;&gt;&#xa;&lt;p&gt;&lt;span style=&quot;background:#FFFFA0; margin-left:11em;&quot;&gt;1319:8a2e:0370:7347&lt;/span&gt;&#xa;&lt;/p&gt;&#xa;&lt;/div&gt;" style="text;whiteSpace=wrap;html=1;" vertex="1" parent="1">
          <mxGeometry x="84" y="330" width="330" height="90" as="geometry" />
        </mxCell>
        <mxCell id="XOve1jFmApysGJR4ThFD-5" value="&lt;div style=&quot;font-family:monospace; margin-left: 2em;&quot;&gt;&#xa;&lt;p&gt;&lt;span style=&quot;background:#FFA0A0&quot;&gt;2001:0db8::/32&lt;/span&gt;&#xa;&lt;/p&gt;&#xa;&lt;/div&gt;" style="text;whiteSpace=wrap;html=1;" vertex="1" parent="1">
          <mxGeometry x="220" y="390" width="160" height="90" as="geometry" />
        </mxCell>
        <mxCell id="XOve1jFmApysGJR4ThFD-6" value="&lt;p&gt;Hat z.&amp;nbsp;B. ein Netzwerkgerät die IPv6-Adresse&lt;/p&gt;&lt;div style=&quot;margin-left: 2em;&quot;&gt;&lt;p&gt;&lt;span style=&quot;background: #FFC0A0; padding: 1.5em 0; line-height: 3em;&quot;&gt;&lt;span style=&quot;background: #A0C0FF; padding: 1em 0;&quot;&gt;&lt;span style=&quot;background: #A0FFA0; padding: .5em 0;&quot;&gt;&lt;span style=&quot;background:#FFA0A0&quot;&gt;2001:0db8:&lt;/span&gt;85a3:&lt;/span&gt;08&lt;/span&gt;d3:&lt;/span&gt;&lt;span style=&quot;background:#FFFFA0&quot;&gt;1319:8a2e:0370:7347&lt;/span&gt;&lt;span style=&quot;background:#FFC0A0&quot;&gt;/64&lt;/span&gt;&lt;br&gt;&lt;/p&gt;&lt;/div&gt;&lt;p&gt;so lautet das Präfix&lt;/p&gt;&lt;div style=&quot;margin-left: 2em;&quot;&gt;&lt;p&gt;&lt;span style=&quot;background:#FFC0A0&quot;&gt;2001:0db8:85a3:08d3::/64&lt;/span&gt;&lt;br&gt;&lt;/p&gt;&lt;/div&gt;&lt;p&gt;und der Interface-Identifier:&lt;/p&gt;&lt;div style=&quot;margin-left: 2em;&quot;&gt;&lt;p&gt;&lt;span style=&quot;background:#FFFFA0; margin-left:11em;&quot;&gt;1319:8a2e:0370:7347&lt;/span&gt;&lt;/p&gt;&lt;/div&gt;&lt;p&gt;Der Provider bekam von der RIR wahrscheinlich das Netz&lt;/p&gt;&lt;div style=&quot;margin-left: 2em;&quot;&gt;&lt;p&gt;&lt;span style=&quot;background:#FFA0A0&quot;&gt;2001:0db8::/32&lt;/span&gt;&lt;/p&gt;&lt;/div&gt;&lt;p&gt;zugewiesen und der Endkunde vom Provider möglicherweise das Netz&lt;/p&gt;&lt;div style=&quot;margin-left: 2em;&quot;&gt;&lt;p&gt;&lt;span style=&quot;background:#A0FFA0&quot;&gt;2001:0db8:85a3::/48&lt;/span&gt;&lt;/p&gt;&lt;/div&gt;&lt;p&gt;oder aber nur:&lt;/p&gt;&lt;div style=&quot;margin-left: 2em;&quot;&gt;&lt;p style=&quot;&quot;&gt;&lt;span style=&quot;background:#A0C0FF&quot;&gt;2001:0db8:85a3:0800::/56&lt;/span&gt;&lt;/p&gt;&lt;/div&gt;" style="text;whiteSpace=wrap;html=1;" vertex="1" parent="1">
          <mxGeometry x="310" y="690" width="410" height="350" as="geometry" />
        </mxCell>
      </root>
    </mxGraphModel>
  </diagram>
</mxfile>
